<?xml version="1.0" encoding="UTF-8"?>
<svg id="Layer_2" data-name="Layer 2" xmlns="http://www.w3.org/2000/svg" xmlns:xlink="http://www.w3.org/1999/xlink" viewBox="0 0 282.04 89.69">
  <defs>
    <style>
      .cls-1 {
        fill: #e61b1f;
      }

      .cls-2 {
        fill: #e61b20;
      }

      .cls-3, .cls-4, .cls-5 {
        fill: none;
      }

      .cls-4 {
        stroke-width: .78px;
      }

      .cls-4, .cls-5 {
        stroke: #e61b20;
        stroke-linecap: round;
        stroke-linejoin: round;
      }

      .cls-6 {
        fill: #f5aa3f;
      }

      .cls-7 {
        fill: #bd1e2d;
      }

      .cls-8 {
        clip-path: url(#clippath);
      }

      .cls-5 {
        stroke-width: .72px;
      }

      .cls-9 {
        fill: #1e4091;
      }
    </style>
    <clipPath id="clippath">
      <path class="cls-3" d="M168.53,71.09c-.1.1-.13.07-.23.17-.06.04-.12.1-.14.06-.01-.03-.05,0-.22.31-.1.14-.04-.04-.25.33-.14.24-.29.51-.33.64-.04.12-.12.3-.37.68-.09.13-.07.13-.07.16-.08.14-.15.27-.26.42-.11.15-.24.35-.32.41-.07.05-.15.14-.23.26-.04.06-.09.12-.14.19-.05.07-.1.14-.16.22-.1.15-.2.27-.26.31,0,0,0,0,0,0,.02-.07-.02-.05-.14.06-.06.06-.13.13-.08.05.13-.21,0-.08-.12.01.37-.54.38-.57.05-.23,0-.02,0-.06-.16.13v-.03s.16-.23.16-.23l.26-.32c.04-.06.09-.13.14-.2-.05.07-.1.14-.14.2.18-.2.34-.41.51-.62,0,.04.13-.11.25-.26.09-.11.18-.21.23-.27.05-.06.07-.07.05,0-.02.06.02.04.17-.2.18-.29.31-.48.45-.66.07-.09.16-.24.2-.33.04-.1.03-.14-.06,0-.04.07-.08.13-.11.18-.03.05-.06.09-.09.12-.05.06-.08.1-.1.12-.04.04-.05,0-.08.03-.32.52-.43.65-.53.66-.06.02.09-.22.25-.46.17-.26.19-.32.18-.35-.01-.03,0-.1-.25.25-.03.05-.1.12-.09.11.12-.3-.11.08-.3.38-.05.06-.1.13-.14.2l-.05.07c-.12.11-.05-.01.11-.25.12-.18.17-.29.11-.23-.06.05.04-.13.13-.27.12-.2.14-.18.17-.21.05-.03.16-.19.18-.17,0,0,.06-.11.08-.14.12-.2.46-.93.47-.97,0-.04-.05.05-.13.16-.09.15-.2.33-.29.45-.14.2-.28.41-.39.62-.19.36-.26.46-.45.65-.16.16,0-.11.07-.27.06-.13,0-.07-.11.1-.3.45-.38.49-.52.64-.01-.06-.21.15-.27.19-.12.06-.25.29-.31.38-.13.2-.29.39-.46.6-.15.14,0-.08,0-.13l.56-.68c.08-.08.13-.15.17-.21.04-.05.07-.09.09-.12.04-.06.03-.09.02-.13h-.1c1.66-2.61,2.27-5.66,2.71-8.91.54-3.94.7-7.64-.49-11.33,0-.04-.26-.27-.26-.27,0-.09-.11.19-.26-.25-.03-.09-.04-.14-.03-.15,0-.03-.03-.14-.08-.26-.02-.11-.05-.21-.07-.33-.04-.17-.01-.15.1.13.05.12.11.33.14.31.02,0-.03-.15-.09-.33-.03-.14-.15-.52,0-.23,0,0,0-.03-.01-.05-.11-.34,0-.12.06.03.05.11.12.31.13.26,0-.04-.05-.21-.1-.36-.06-.17-.1-.29-.09-.32.02-.06.21.3.35.67.05.13.06.2.08.26.01.07.03.13.07.26l.11.35c0-.06-.04-.26-.1-.49-.07-.23-.15-.48-.22-.66l-.05-.18h0c-.11-.37.03-.14.04-.22.03.07.05.1.05.09.02-.13.12-.07.19-.07h0s.03,0,.03-.04c0-.05-.02-.13-.06-.24.07.1.17.34.25.51.07.18.13.32.18.44.06.12.11.23.16.35.17.41.19.36.03-.22-.1-.3-.2-.61-.23-.78,0-.06-.04-.14-.07-.24-.04-.1-.08-.2-.13-.31-.13-.28-.25-.56-.38-.84-.14-.28-.27-.55-.41-.83-.08-.18-.17-.31-.2-.32-.09-.16-.22-.41-.26-.43-.03-.02-.08-.03.02.16.17.35.23.51.23.6.09.31.09.29-.17-.13-.09-.13-.13-.18-.1-.09.02.07.08.2-.03.04l-.31-.57c-.06-.09-.11-.19-.16-.28-.05-.09-.11-.18-.16-.27-.1-.18-.2-.34-.29-.51-.03-.06-.06-.11-.09-.17-.03-.05-.07-.1-.1-.15-.07-.1-.13-.19-.22-.3-.13-.17-.27-.35-.41-.57l.04-.04s0,0,0,0c0,0,0,0,0,0,.15.17.2.2.37.43.09.11.15.18.23.27.04.05.08.1.13.16.05.06.1.14.16.25.3.51.04-.07.29.34,0,.01.02.02.02.03.07.09.09.12.07.06-.02-.04-.06-.12-.1-.19-.07-.12-.11-.16-.14-.18-.02-.02-.05-.05-.09-.11-.04-.05-.09-.12-.15-.21-.12-.18-.18-.25-.25-.32-.05-.05-.13-.15-.22-.26-.08-.12-.18-.25-.25-.36-.11-.16-.34-.48-.15-.3h0s.06.07.06.07c.29.41.16.15.29.3.06.08,0-.04-.03-.07-.15-.16-.37-.53-.46-.56-.06-.07-.1-.12-.13-.14l-.12-.15-.12-.15c-.06-.09-.11-.18-.03-.12.03.03.08.04-.07-.13-.28-.31-.34-.42-.44-.58-.16-.24-.36-.45-.51-.56l-.13-.14c-.09-.12-.13-.18-.12-.18.02,0,.08.05.2.17.06.06.18.19.13.12-.21-.28,0-.11-.04-.21-.03-.07-.23-.33-.06-.19.13.11.11.05.25.16.1.08,0-.06-.13-.2-.07-.08-.54-.45-.5-.4.16.19-.03.01-.12-.05-.11-.08-.24-.2-.35-.28-.11-.09-.2-.14-.2-.11,0,.03-.33-.26-.47-.4-.05-.05-.04-.06-.12-.14-.34-.32-.1-.13.05-.02.08.06.19.16.28.23.16.13.13.08.04-.02-.05-.06-.21-.19-.36-.32-.15-.13-.31-.24-.36-.27-.14-.08-.31-.21-.51-.39-.07-.07-.14-.13-.21-.18-.07-.05-.15-.1-.22-.16-.22-.15-.35-.24-.25-.22.03,0,.03,0,.04,0h0c.65.41.64.32.01-.2-.21-.17-.33-.27-.47-.33-.12-.09-.27-.2-.19-.17.04.01-.02-.04-.12-.1-.19-.13-.33-.23-.48-.35-.09-.07-.2-.14-.3-.2-.1-.06-.21-.12-.3-.17-.17-.09-.23-.1-.15-.03.08.07-.02.04-.16-.02-.28-.13-.26-.09.08.13.07.05.03.04.19.13.12.07.07.02.07,0,0-.03.08-.02.32.11.24.13.52.33.72.49.08.06.18.14.3.21.05.07.02.09.19.25-.07-.05-.14-.09-.2-.14-.07-.04-.13-.09-.19-.13-.12-.09-.24-.17-.35-.26-.19-.14-.28-.18-.36-.22-.1-.04.06.07.14.13.19.14.41.29.63.42.17.1.27.19.29.23.01.03,0,.05-.15-.07-.35-.24-.71-.46-1.07-.71-.44-.28-.66-.45-.92-.64.03-.01-.09-.1-.32-.23-.11-.06-.16-.07-.18-.07-.05,0,.05.07.32.22-.09-.01.06.14-.56-.26,0,0-.03-.02-.04-.02-.43-.21-.37-.21-.36-.24-.02-.01-.04-.02-.06-.04.02.01.04.02.06.04.27.12.25.08.09-.05-.07-.05-.13-.08-.1-.09.07,0-.02-.09-.23-.21-.1-.06-.23-.14-.39-.22-.16-.08-.33-.17-.53-.25-.03-.05.13,0,.48.17.24.11.49.22.73.33.24.11.48.25.73.38.88.47,1.71,1,2.5,1.48l.04-.02-.04.02c.07.04.13.09.17.11.22.16.35.23.5.32.08.05.1.05.06,0-.04-.04-.13-.11-.21-.16-.09-.06-.18-.13-.28-.2l-.14-.1s-.1-.06-.14-.09c-.11-.12-.5-.37-.74-.55-.28-.21-.62-.41-.94-.62-.16-.11-.33-.2-.49-.3-.16-.1-.32-.19-.47-.28-.28-.18-.56-.33-.83-.49-.28-.16-.56-.33-.89-.48-.09-.04-.09-.06-.12-.08-.1-.08-.29-.19-.5-.31-.05-.03-.11-.06-.16-.09-.06-.03-.11-.06-.17-.09-.11-.06-.23-.11-.33-.17,0,0-.02-.02-.09-.05v-.02s-.02-.04.04-.03c.2.03-.02-.09-.16-.18-.24-.17-1.04-.44-1.16-.55.05-.02.08-.04.17-.05.06,0,0-.04-.19-.1-.31-.11-.27-.11-.03-.05.26.07.17.03-.03-.06-.1-.04-.2-.08-.31-.12-.11-.04-.21-.07-.32-.11-.21-.07-.41-.14-.58-.21-.11-.04-.22-.08-.34-.12-.12-.04-.25-.07-.38-.1-.26-.07-.55-.14-.83-.2-.1-.03-.18-.04-.24-.04-.05,0-.08,0-.09,0-.02.03-.2.02-.48,0-.24-.02-.31,0-.69-.09-.04,0-.18-.02-.18-.02-.21.05-.4-.03-.59-.07-.04,0-.09-.01-.21-.03.11.03.02.05.19.08h-.21c-.43-.06-.29-.01-.32,0v.03c-.09-.01-.18-.01-.26-.02-.25-.02-.38-.07-.62-.07-.21,0,.21.05.13.07v.02s-.21,0-.21,0c-.45-.04-.83-.01-1.26-.02-.07-.03-.39-.05-.47-.09-.09-.03-.06-.06.41-.04.29,0,.29,0,.24-.02-.07-.02-.2-.04-.4-.06v-.04s.21-.02.21-.02c.29,0,.19.02.21.04-.03.02.1.03.17.04.08.02.17.03.38.03.26,0,.17-.01.19-.03v-.04c.1,0,.22.02.27,0,0,0-.02,0-.04,0-.09,0-.17-.01-.22,0-.14-.02-.21-.02-.21-.04,0-.02,0-.03.11-.04.22.01.27,0,.38,0,.25,0,.56.01.83.04.31.03.02.03-.02.04-.01,0,.01.01.06.02.08,0,.16.02.22.02.19,0,.4,0,.72.03.11,0,.16,0,.14,0-.05-.02.01-.03.12-.03.11,0,.27.01.41.03.34.04.9.13.95.09,0,0,.11,0,.17.02.38.07.38.07.26.01-.02,0-.05-.02-.03-.02.24,0,.25-.07.67-.03.16.01.27.01.41.02-.05-.01-.09-.02-.12-.03.04.01.08.02.12.03l.21.04h0c.26.07.55.15.55.11,0-.01.12.01.23.05.45.14.43.09.64.14.35.09.3.05.09-.04-.09-.04-.16-.08-.02-.04.13.03.26.08.39.12.29.1.37.15.68.25.07.04.06.05.05.05-.04.02-.2,0-.29.01v.03c-.11-.02-.24-.04-.31-.05-.15-.01-.34-.04-.23.03.06.04.21.11.39.18.17.06.2.09.27.13.07.04.19.09.54.2.02,0,.1.04.11.05.04.05.52.22.62.29.04.02.14.07.24.1.41.14.62.25.75.34.07.05.16.09.36.17.28.11.98.48.95.51-.05.05.44.38.7.6.15.13.18.21-.08.08-.34-.16-.25-.09-.07.03.2.13.32.22.28.23-.02,0,.04.05.08.09.03.03.1.08.21.14.16.09.12.06.13.05.02-.01.19.07.31.16.14.11.33.22.52.34.19.12.37.24.52.36.04.03.16.11.2.13.08.04.16.08.24.13.04.02.09.05.13.07.05.03.1.06.15.1.09.06.06.02-.03-.05-.08-.07-.19-.14-.24-.16-.16-.05-.25-.15-.35-.24-.06-.05-.11-.1-.21-.18-.2-.15-.17-.17,0-.08.23.12.31.14.3.1-.01-.05.26.1.47.21.16.09.35.24.44.33.05.05.05.07.09.12.05.05.17.15.29.24.07.06.16.12.16.1,0-.03.05,0,.14.06.09.06.21.17.35.27.11.09.17.12.19.13.02,0-.04-.05-.12-.11-.46-.35-.43-.38-.46-.43-.04-.08-.15-.2-.49-.47-.16-.12-.29-.23-.39-.32-.1-.08-.18-.14-.22-.19-.08-.09-.04-.09.15,0,.22.11.12,0-.16-.2-.2-.15-.28-.22-.12-.15.14.07.08,0-.04-.1-.21-.19-.08-.13.38.17.2.13.21.12.15.07-.18-.16-.11-.15-.1-.18,0-.02-.02-.05-.19-.17-.34-.24-.43-.35-.53-.45-.04-.04.04,0,.17.09.5.34.29.17.18.07-.2-.18-.13-.16.23.04.14.08.17.09.06,0-.1-.08-.24-.18-.36-.27h0s0-.02,0-.02c.2.1.38.19.69.38.11.08.18.14.24.19.06.06.11.1.17.16.21.22.44.42.84.7.13.15.44.44.49.54.02.04.2.21.17.22-.02,0,.07.1.19.2.54.48.51.52.4.48-.02,0,0,.03.04.08.13.15.23.27.35.4.12.14.26.3.47.53.32.34.43.51.46.6.03.08,0,.1.36.42.03.03.09.09.14.14.1.11.23.28.3.41.07.13.1.21.03.13-.16-.17-.21-.19-.22-.17,0,.02.03.08.02.1,0,0,0,.03.07.11.09.11.11.12.13.12.15.04.46.28.75.49.04-.02.26.23.41.39.2.2.23.19.09-.05-.06-.09-.11-.19-.11-.22,0-.14-.1-.38-.71-1.15-.03-.03-.04-.06-.06-.09-.16-.22-.33-.43-.53-.66-.1-.11-.21-.23-.33-.36-.12-.12-.26-.24-.41-.38-.14-.15-.35-.31-.44-.44-.08-.12-.28-.3-.46-.45-.4-.34-.5-.46-.48-.49,0-.01,0-.04-.06-.09-.05-.05-.14-.13-.28-.23-.24-.19-.49-.38-.75-.59-.26-.2-.4-.32-.59-.48-.03-.05-.12-.13-.24-.24-.06-.05-.13-.11-.2-.17-.07-.06-.15-.11-.23-.17l-.08-.07c-.17-.16-.02-.11.15-.04.04,0,.17.05.29.1.12.05.24.1.26.08.02-.02.16.06.41.23.17.13.32.24.46.34.14.1.27.19.4.29.17.12.2.12.07,0-.31-.29-.52-.48-.74-.69-.06-.05-.15-.13-.26-.21-.11-.08-.23-.17-.34-.25-.11-.08-.23-.16-.35-.24-.23-.16-.46-.32-.68-.47-.13-.09-.24-.15-.31-.18-.47-.28-.68-.38-.44-.2.22.16.19.17.26.25.12.12-.02.05-.42-.17-.07-.04-.12-.06-.1-.03.08.08.02.06-.33-.16-.16-.1-.32-.19-.47-.28-.15-.09-.31-.18-.47-.27-.29-.23-.88-.48-1.39-.73l.02-.04s0-.01,0-.02c.01.01.01.02,0,.02.33.13.6.23,1,.41.08.04.15.07.12.04-.03-.03-.12-.07-.2-.11-.53-.24-.81-.39-.78-.43.01-.01-.14-.09-.31-.17-.16-.07-.27-.11-.29-.1-.01,0,.01.03-.13-.03-.12-.05-.16-.08-.19-.1-.02-.02-.06-.05-.18-.09-.18-.08-.11-.03-.16-.04-.03,0-.06-.01-.09-.02-.1-.04-.2-.08-.27-.12-.07-.03-.12-.06-.13-.07,0-.02-.12-.07-.27-.14-.08-.03-.18-.08-.17-.08.02,0,.17.05.29.09.11.04.21.08.28.09.51.18-.04-.07-.02-.08.01,0-.22-.11-.36-.14-.21-.06-.72-.24-.47-.1.07.04.18.1-.04.03-.19-.06-.41-.14-.59-.21-.05-.02-.08-.04-.13-.06-.18-.07-.34-.14-.51-.16-.06,0-.25-.05-.46-.13-.3-.1-.6-.16-.91-.24-.34-.09-.37-.09-.27-.04.06.03.04.04-.11,0-.16-.04-.28-.07-.38-.1-.18-.06-.45-.13-.17-.1.08,0,.09,0-.1-.04-.4-.07-.41-.1-.55-.15-.12-.04-.21-.08-.5-.13-.62-.14-1.23-.27-1.34-.36-.02-.02-.16-.03-.3-.05-.17-.02-.38-.04-.33-.02.11.04-.34.04.38.13.11.01.15.03.11.03-.14.01-.01.05-.11.07-.07.01-.05.03.03.04.08.02.23.04.42.07.04.03-.07.03-.12.04-.23-.02-.48-.03-.79-.07-.26-.03-.37-.06-.32-.07.04-.01.13-.02.19-.03.03,0,.04-.01-.07-.03-.12-.02-.31-.04-.36-.04-.12,0-.38-.01-.48,0-.1,0-.31.01.05.05.38.04.19.05-.02.05-.46-.02-1.03-.06-.91,0-.1,0-.21,0-.3-.01-.09,0-.17,0-.21-.02-.04-.01-.2-.03-.41-.03-.2,0-.28.01-.33.03-.08.02-.22.03-.55.03-.28,0-.43.03-.44.05,0,.01-.05.03.15.03.12,0,.25,0,.36,0,.11,0,.22,0,.31-.01.13-.01.26-.02.36-.04.13-.01.27-.02.45,0,.15.01.42.03.2.05-.34.02-.72.05-1.1.07-.16,0-.31.02-.48.03-.16,0-.33.01-.5.02-.17,0-.34,0-.52.01-.17,0-.34.02-.51.04-.15.01-.26.02-.27.04-.01.01.1.02.23,0,.19-.02.32-.03.43-.03.1,0,.19,0,.29.01.13,0,.31,0,.24.02-.06.02-.22.03-.41.03-.14,0-.2.01-.24.03-.08.03-.33.05-.55.06-.04,0-.08-.01-.11-.02-.12-.02-.26-.03-.48-.02-.21,0-.49.05-.87.11-.14.02-.31.05-.39.05-.29,0-.23.04-.37.06-.21.02-.47.06-.63.07-.29.02-.43.06-.59.11-.11.03-.22.05-.32.07-.33.05-.49.06.04-.08.11-.03.16-.05.16-.06.17-.05.25-.07.31-.09.07-.02.12-.05.23-.08.23-.05.33-.09.43-.12h0c.2-.05.46-.12.69-.17.23-.05.43-.09.53-.13l.33-.06c.21-.05.22-.07.23-.1.22-.03.44-.04.42-.07.12-.03.38-.07.12-.06-.23,0-.52.03-.77.08-.07.01-.11.03-.17.04-.06,0-.12.02-.18.02-.11.01-.24.03-.33.05-.4.06-.83.16-1.25.24-.21.05-.42.08-.62.14-.2.05-.39.11-.58.16-.22.07-.48.13-.75.2-.27.08-.54.16-.81.23-.14.04-.28.08-.41.11-.13.04-.26.09-.39.13-.26.09-.51.17-.77.26-.19.06-.36.13-.53.19-.17.06-.35.13-.53.2-.13.05-.25.09-.38.13-.12.05-.24.09-.37.14-.25.1-.5.2-.78.34-.32.16-.58.29-.84.4-.1.04-.27.11-.42.19-.16.08-.31.16-.4.19-.14.05-.14,0-.46.18-.16.08-.31.16-.46.24-.15.08-.3.17-.45.26-.15.09-.3.18-.46.27-.08.05-.16.1-.24.15-.08.06-.16.11-.24.17-.07.05-.21.15-.26.18-.19.11-.41.25-.62.4-.21.16-.42.32-.63.47-.18.12-.23.19-.35.28-.21.16-.41.28-.63.51-.05.06-.37.32-.31.23.09-.12-.08,0-.22.08-.2.14-.43.39-.65.6-.06.02.06-.12-.04-.05-.09.06-.1.04-.33.28-.14.16-.3.32-.43.43-.12.09-.28.24-.46.41-.17.16-.22.21-.23.2,0,0-.01-.03-.13.11-.16.19-.02.04,0,.03.06-.02-.09.22-.24.38-.26.28-.23.21-.28.24-.07.03.24-.32.23-.34,0-.02-.36.38-.31.27.04-.09-.11.03-.25.17-.32.31-.5.45-.34.15.04-.07-.05.03-.14.12-.1.12-.21.25-.27.35-.06.11-.12.2-.19.32-.06.11-.13.22.07-.03.11-.13.2-.22.08-.05-.19.28-.22.39-.38.64-.08.13-.05.12,0,.06.2-.2.19-.19-.16.33-.06.08-.11.16-.17.24-.05.07-.1.14-.14.21-.09.13-.16.22-.21.28-.11.13.08-.19.19-.38.03-.05.06-.11.09-.16.17-.27.02-.1-.07.03-.2.31-.43.65-.58.92-.05.09-.03.07,0,.05.06-.05.09-.07.06-.01-.03.06-.12.18-.27.44-.23.38-.46.75-.54.99-.07.14-.13.24-.17.29-.1.07-.21.24-.32.52-.05.13-.11.25-.16.37-.05.12-.12.26-.2.41-.11.21-.21.46-.27.63-.03.08-.06.17-.02.11.08-.12.18-.36.28-.57.07-.14.11-.25.16-.37.09-.22.14-.36.27-.62.13-.16.15-.16.11-.05-.02.06-.06.14-.12.25-.03.06-.06.12-.09.18-.03.07-.06.14-.1.22-.16.38-.32.75-.49,1.14-.13.32-.24.57-.35.8-.05.12-.11.23-.16.34-.05.12-.1.24-.15.36-.07.17-.1.27-.13.38-.02.09.01.05.06-.09.2-.58.21-.46.31-.66-.02.07-.04.14-.05.21-.12.34-.25.66-.35,1.04-.02.07-.05.14-.06.21h0s-.04,0-.04,0c-.02-.22-.08-.1-.35.82-.05.17-.09.32-.1.25,0-.03.04-.22-.01-.05-.04.12-.05.22-.07.33-.02.09-.04.21-.06.31.03-.24-.06.1-.09.16.07.05.44.59.4.84-.07.29-.09.31-.11.32-.03,0,0-.16.04-.33.03-.14-.33-.58-.43-.75.08.19.15.37.12.47-.14.47-.23,1.01-.33,1.5-.03.13-.05.26-.08.38-.02.12-.04.23-.06.34-.04.22-.07.41-.11.61-.04.18-.07.31-.11.48-.03.17-.06.37-.08.7-.02.4-.05.54-.08.63-.04.24-.06.56-.1.68-.04-.23-.08-.06-.11.33-.02.23-.05.41-.06.64,0,.23,0,.49.01.88.01.21,0,.25-.01.32-.02.1,0,.42.01.77,0,.18.02.36.03.54.01.17.03.33.05.45.04.25.06.4.04.43l.11.69c.04.23.09.45.13.68.02.01.04.11.07.26.06.24.1.47.17.71.07.23.13.47.19.7.03.12.07.23.1.35.03.12.07.23.11.34.08.23.15.45.23.67.06.16.11.33.17.5.06.16.13.32.19.47.08.19.17.39.25.59.04.1.08.21.13.31.05.1.1.21.14.31.1.21.2.42.29.62.05.1.1.21.15.31.05.1.11.2.16.29.21.39-.12.39.03.61.1.19.18.3.26.44.16.26.31.49.46.71.16.22.31.44.49.68.1.14.22.32.34.48.12.16.23.3.3.37.25.32.34.39.35.33l.1.07c.06.07.07.09.08.08,0,0,0,0,0,0,.08.11.19.23.23.32.12.22.36.52.59.81.23.27.44.52.68.81.12.15.21.27.3.38.08.1.16.2.25.29.23.26.44.5.64.74.22.23.44.47.71.72,0,.03.12.16.29.32.53.48,1.03.95,1.58,1.35.18.14.37.28.55.43.19.14.38.29.57.43.19.14.39.29.58.43.2.13.4.26.6.39.08.05.09.07.11.09.03.03.06.07.19.14.13.08.09.04.11.04.02,0-.01-.03.12.05.12.08.16.11.17.13.05.07.31.23.55.38.16.1.35.21.48.3.39.24.57.31.69.35.05.01.08.02.14.04.11.04.2.05.53.24.32.17.24.15.19.15-.04,0,.09.08.32.19.23.11.36.16.28.09-.13-.1-.02-.08.02-.1-.52-.22-.52-.23-.47-.25.02,0-.01-.04-.05-.08-.02-.02-.03-.04-.07-.06-.04-.03-.11-.07-.26-.15-.25-.14-.34-.17-.46-.21-.13-.05-.31-.11-.68-.34-.51-.35-.51-.35-.75-.43-.09-.03-.25-.11-.53-.27-.15-.1-.25-.18-.25-.19.01-.03-.12-.16-.06-.15.02,0,0-.03.1.04.26.17.51.31.75.44.23.13.45.24.65.34.04.02.14.08.19.11.24.14.36.19.46.23.14.05.3.12.59.28.07.04.13.08.2.11.06.03.12.07.18.09.1.06.18.11.2.13.05.08.43.29.72.47.08.05.2.1.33.15.24.09.46.18.7.3.17.08.4.18.44.17.06-.02.24.06.39.14.26.13.48.18.69.25.24.07.14.02-.01-.05-.09-.04-.2-.09-.11-.07.1.02.27.09.39.14.24.09.51.18.78.27.13.04.27.09.4.13.13.04.27.09.4.13.31.09.89.25.94.24.09-.02.35.03.67.07.11.02.1,0,.05-.02-.05-.02-.14-.05.06-.02.15.03.32.07.39.1.1.04.24.08.4.12.08.02.16.04.25.06.09.02.18.03.27.05.37.07.75.14,1.02.2.11.03.22.03.27.03.13,0,.28.01.5.05.15.03.35.05.5.06.13,0,.26.02.39.02.13,0,.26,0,.39,0,.26,0,.52,0,.77.01.14,0,.16-.01.14-.02-.09-.04-.13-.09-.29-.13-.31-.09-.72-.19-.89-.28-.08-.04-.42-.11-.64-.17h0c-.19-.15-.99-.35-1.2-.53-.2-.07-.34-.14-.52-.21-.09-.04-.19-.07-.31-.11-.06-.02-.13-.04-.21-.06-.08-.02-.16-.05-.25-.08-.01-.02.08-.02.2,0,.24.01.55.03.6,0,.19.03.29.03.55.07.15.03.27.03.19,0-.25-.08.15-.06.12-.1,0-.01.22,0,.44.02.25.03.43.07.55.1.12.03-.09.01-.23,0-.12,0-.22,0-.13.01.12.03.3.04.44.05.38.02.75.05,1.11.09.26.03.53.06.83.08.18,0,.42.03.32.04-.29.02-.19.06-.33.09-.07.02-.13.04-.4.03-.12,0-.37-.03-.28,0,.08.02.31.03.48.03.11,0,.17-.01.28-.02.25-.01.4-.04.77-.03.26.01.51.02.76,0,.33,0,.52-.02.33-.05-.1-.01.22-.1.41-.1.3-.01.42-.04.5-.07.08-.03.29-.06.56-.09.1.01-.03.03-.16.05-.13.02-.11.03,0,.03.11,0,.25,0,.33-.03.09-.02.24-.04.41-.06.16-.02.34-.05.49-.07.11-.01.22-.03.33-.04.18-.02.41-.05.48-.08.1-.04-.19,0-.33.02-.34.03-.28,0,.05-.05.42-.05.46-.08.43-.1l.11-.02c.25-.03.45-.06.43-.09.26-.06.56-.13.64-.18h0c.25-.07.38-.13.24-.14-.11,0,.43-.18.79-.27.16-.03.26-.06.36-.09.09-.03.17-.06.27-.09.32-.08.6-.16.84-.23.06-.02.11-.04.17-.06.05-.02.1-.04.14-.06.09-.04.16-.07.22-.11.16-.09.47-.21.81-.33.53-.2.74-.32.94-.44h0s.25-.1.25-.1c.08-.03.16-.07.24-.11l.38-.19c.13-.03.28-.07.23,0,.66-.36,1.7-.89,2.33-1.32-.22.11-.59.32-.39.17.23-.13.38-.24.54-.34.15-.1.3-.22.51-.36.38-.23.22-.1.29-.11.1-.07.17-.11.23-.15.19-.13.27-.22.39-.32.12-.11.28-.23.61-.45.01,0,.04-.04.06-.06.06-.05.12-.11.24-.18.09-.06.11-.06.06,0-.1.1-.14.16-.26.27-.09.08-.26.23,0,.07.13-.08.21-.15.28-.21.07-.06.12-.12.19-.18.06-.06.05-.06,0-.04-.09.04-.04,0,.15-.15.35-.27.35-.3.33-.32-.02-.02.03-.06.12-.15.09-.09.23-.21.41-.36.41-.34.07,0,.17-.07.2-.17.16-.18.37-.35.19-.16.1-.05.16-.08.01,0,.05-.04.08-.06l.25-.27c.05-.07.06-.11.12-.19.03-.04.06-.08.12-.15.06-.06.13-.14.23-.24-.1.1-.17.18-.23.24-.06.06-.09.11-.12.15-.05.08-.07.12-.12.19l-.25.27s-.18.22-.27.31c-.12.1-.19.17-.24.23-.13.15-.12.18-.11.22,0,.03.1,0-.23.3-.13.12-.21.19-.23.21-.02.02.03,0,.14-.08.06-.04.12-.08.08-.03-.03.03-.07.07-.11.1-.05.04-.1.07-.15.11-.11.08-.23.16-.28.22-.06.07-.18.19-.33.32-.07.06-.15.13-.22.19-.07.06-.14.12-.2.17-.27.23-.71.58-.82.7-.12.14-.42.33-.79.58-.25.17-.47.3-.35.28.07-.02-.08.08-.23.16-.55.31-.51.34-.5.36.01.03-.05.09-.03.11.02.02-.13.11-.34.2-.26.11-.36.18-.46.24-.18.12-.33.24-.54.36-.2.12-.45.26-.83.44-.1.05-.17.09-.1.08.25-.13.76-.31.81-.39,0,0,.12-.06.22-.1.1-.04.09-.03.11-.03.04,0-.13.1.02.04.17-.06.03.02-.16.11-.3.13-.44.21-.58.29-.15.09-.46.24-.62.28-.32.07-.53.17-.81.31-.09.05-.25.11-.39.17-.23.08-.3.12-.28.13-.04.02-.12.05-.2.08h0s.01,0,.02,0c0,0,0,0,0,0,0,0,.03,0,.05,0l.08-.03c.06-.02.13-.04.19-.06.11-.03.21-.07.31-.11.2-.08.4-.16.61-.25.08-.03.16-.07.24-.1.26-.09.52-.21.77-.31.25-.11.49-.22.71-.34.03-.01.15-.07.23-.1.01-.02.07-.05.14-.09-.07.04-.13.07-.14.09.23-.11.47-.22.71-.34.12-.06.24-.12.35-.18.12-.06.23-.13.34-.19.18-.09.33-.18.48-.27.14-.08.31-.18.41-.23.28-.14.61-.35.93-.55.48-.29,1.02-.72.97-.74l.15-.11c.11-.08.18-.13.2-.17.29-.25.56-.48.9-.77.33-.29.91-.89.88-.92,0,0-.04.03-.07.04-.03,0,.07-.12.18-.25.23-.26.28-.37.18-.35-.09.02-.32.18-.65.43-.01,0-.02-.02-.17.09-.11.09-.15.1-.08.02.3-.32.07-.18-.23.02-.06.03.13-.15.14-.18l.23-.22c.45-.43.45-.45.14-.23-.05.03-.09.06-.13.09-.1.06-.2.11-.31.17-.15.07-.06-.05.02-.16h0c.12-.11.32-.31.32-.34,0-.05.26-.33.34-.45h0s.24-.28.41-.5c.2-.2.39-.4.57-.6.09-.08.19-.18.29-.3.15-.19.4-.44.54-.63.12-.13.23-.28.34-.41l.34-.42c.07-.08.13-.17.2-.25.06-.09.12-.17.18-.25.12-.17.23-.33.31-.47h0l.11-.17c.06-.08.13-.16.18-.24.05-.05.13-.13.26-.31,0,0,0,0,.02-.01-.01.07.11-.09.26-.31.02,0,.12-.14.19-.23.33-.48.48-.75.5-.94,0-.04.02-.1.05-.18.03-.08.06-.18.11-.31.08-.19.18-.44.11-.36Z"/>
    </clipPath>
  </defs>
  <g id="Layer_1-2" data-name="Layer 1">
    <g>
      <g>
        <path class="cls-9" d="M140.53,25.41c0,2.85-.87,4.88-2.74,4.67v.04c-59.86-13.49-77.5-2.55-94.74,9.02-4.25,2.85-13.56,12.95-13.56,12.95l-.06-.03h0l.06.03-2.88,3.24c-.32.72-.17,1.4.4,2.03l15.86,18.81c5.8,7.28-5.25,16.5-10.86,9.67l-17.3-20.47c-.34-.36-1.04-.55-1.04.37v17.42c0,8.67-13.69,8.67-13.69,0V26.85c0-8.76,13.69-8.76,13.69.09v18.9c0,.83.7,1.11,1.2.56l.04-.05-.08-.03c49.17-86.01,122.9-25.75,122.94-26.47v.03c1.56.75,2.74,3.02,2.74,5.53Z"/>
        <path class="cls-7" d="M87.3.19c6.41.38,12.45,1.68,18.03,3.46v21.15c-6.42-.62-12.43-.9-18.03-.91V.19Z"/>
        <path class="cls-6" d="M105.33,3.65c5.8,1.85,11.2,3.89,15.62,6.12v17.08c-5.45-.89-10.65-1.57-15.62-2.05V3.65Z"/>
      </g>
      <rect class="cls-9" x="39.95" y="57.74" width="25.71" height="14.14" rx="7.07" ry="7.07"/>
      <path class="cls-9" d="M106.32,46.53c4.02,0,7.29-3.26,7.29-7.29s-3.26-7.29-7.29-7.29h-29.73c-4.02,0-7.29,3.26-7.29,7.29,0,.36.15.67.2,1.01-.05.35-.2.65-.2,1.01v38.63c0,4.31,3.5,7.81,7.81,7.81s7.81-3.5,7.81-7.81v-10.24h19.08c4.02,0,7.29-3.26,7.29-7.29h0c0-4.02-3.26-7.29-7.29-7.29h-19.08v-8.56h21.4Z"/>
      <path class="cls-9" d="M200.92,32.43c-15.14,0-27.42,12.28-27.42,27.42s12.28,27.42,27.42,27.42,27.42-12.28,27.42-27.42-12.28-27.42-27.42-27.42ZM200.92,73.04c-7.28,0-13.18-5.9-13.18-13.18s5.9-13.18,13.18-13.18,13.18,5.9,13.18,13.18-5.9,13.18-13.18,13.18Z"/>
      <path class="cls-9" d="M258.66,31.93h-18.66c-3.82,0-6.91,3.09-6.91,6.91v40.94c0,3.82,3.09,6.91,6.91,6.91h18.66s23.35-.59,23.35-27.38c0,0,1.68-27.38-23.35-27.38ZM266.8,61.42s.15,10.13-8.14,11.98h-10.21v-28.19h10.21s8.14-.08,8.14,13.53v2.68Z"/>
      <g>
        <g>
          <path class="cls-7" d="M249.13,12.86c-.01.05-.01.08-.02.09-1.03,1.38-2.24,2.58-3.85,3.27-.23.1-.48.18-.73.25-.29.09-.3.1-.17.38.76,1.61,1.52,3.23,2.29,4.84.22.45.45.89.68,1.34.25.49.05.83-.49.82-.88,0-1.76-.04-2.64-.05-.35,0-.56-.18-.68-.51-.83-2.23-1.67-4.46-2.5-6.69-.1-.26-.24-.46-.53-.52-1.67-.42-3.33-.5-4.99.06-.7.24-1.36.56-1.91,1.06-.16.15-.32.34-.39.54-.66,1.83-1.31,3.66-1.96,5.5-.16.45-.34.59-.82.59-1.98,0-3.96-.02-5.95-.02-1.11,0-2.23.03-3.35.04-.07,0-.15,0-.22,0-.3-.02-.41-.13-.41-.42,0-.69,0-1.38.01-2.06.02-.98.05-1.96.06-2.93.02-1.83.03-3.66.02-5.49-.01-1.93-.06-3.86-.09-5.8,0-.06,0-.13,0-.19,0-.33.13-.46.46-.45.59,0,1.18.04,1.77.04,2.29,0,4.58-.02,6.86-.04.49,0,.6.08.68.58.02.16.05.32.07.48.04.38-.14.58-.53.57-.55-.02-1.1-.07-1.64-.08-1.61,0-3.22,0-4.83,0-.25,0-.31.1-.31.33,0,.94,0,1.88-.01,2.82,0,.9-.02,1.79-.03,2.69,0,.3.03.33.33.33,1.37.01,2.73.03,4.1.03.49,0,.99-.04,1.48-.08.45-.04.61.09.56.54-.03.25-.1.51-.17.75-.07.25-.26.38-.53.36-.56-.03-1.13-.09-1.69-.09-1.27,0-2.54.03-3.81.03-.19,0-.26.08-.26.26.02,1.79.04,3.57.06,5.36,0,.36.1.51.46.59.6.12,1.21.24,1.82.27,1.14.05,2.28.04,3.42.06.19,0,.27-.09.35-.24,1.9-3.99,3.65-8.05,5.3-12.14.96-2.36,1.9-4.73,2.85-7.1.15-.39.32-.52.67-.52.36,0,.52.12.69.53,1.53,3.76,3.06,7.53,4.59,11.29.28.69.29.69,1.03.63.97-.08,1.88-.4,2.75-.81.66-.31,1.29-.66,1.94-.99.07-.03.14-.07.23-.11ZM234.5,14.37s.04.03.05.04c.86-.37,1.76-.57,2.68-.55.92.02,1.83.1,2.76.16-.88-2.16-1.78-4.33-2.7-6.57-.95,2.35-1.87,4.63-2.8,6.92Z"/>
          <path class="cls-7" d="M190.67,15.87c-1.86,1.31-3.72,2.63-5.63,3.98.47.11.87.2,1.28.29.01.02.03.05.04.07-.45.39-.87.82-1.36,1.15-1.53,1.03-3.23,1.33-5.05,1.04-2.2-.36-3.92-1.44-4.99-3.42-1.61-2.99-1.95-6.16-1.14-9.43.74-2.96,3.92-6.25,8.37-5.2.88.21,1.75.44,2.41,1.11.38.38.72.81,1.05,1.24.3.39.61.73,1.09.88.89.28,1.76-.34,1.78-1.27.01-.58-.21-1.07-.58-1.5-.71-.81-1.6-1.35-2.59-1.73-1.76-.67-3.59-.87-5.46-.67-1.6.17-3.13.59-4.53,1.38-2.37,1.35-3.82,3.44-4.66,5.98-.79,2.38-.71,4.79-.02,7.18.51,1.75,1.35,3.3,2.69,4.55,1.33,1.24,2.92,1.99,4.67,2.39,1.89.44,3.77.31,5.64-.13,1.48-.35,2.85-.95,3.99-1.99.18-.16.34-.35.53-.54.18.44.35.84.54,1.32.67-2.27,1.32-4.46,1.97-6.66-.01-.01-.03-.02-.05-.03ZM186.98,5.53c.23,0,.42.19.42.42s-.19.42-.42.42-.42-.19-.42-.42.19-.42.42-.42Z"/>
          <path class="cls-7" d="M203.83,16.3c0-2.33,0-4.66,0-6.98,0-.69-.03-1.39-.04-2.08-.02-.51.04-.59.55-.65.56-.06,1.13-.1,1.69-.11,1.63-.02,3.26-.06,4.9-.02,1.62.04,3.22.32,4.7,1.03,2.14,1.02,3.39,2.69,3.71,5.06.23,1.7.17,3.37-.41,5-1.13,3.14-3.33,5.12-6.53,6.02-1.43.4-2.9.46-4.37.42-.86-.02-1.71-.02-2.57-.05-.44-.02-.87-.06-1.3-.13-.29-.04-.37-.16-.36-.45.03-2.17.06-4.35.09-6.52,0-.18,0-.36,0-.54h-.05ZM206.27,14.9h0c0,.31,0,.63,0,.95.03,1.95.07,3.9.1,5.84,0,.28.14.46.4.54.13.04.26.09.39.12,1.22.21,2.44.27,3.67.11,2.45-.33,4.17-1.61,5.14-3.9.77-1.83.9-3.72.56-5.66-.23-1.28-.77-2.39-1.73-3.28-1.26-1.17-2.79-1.66-4.47-1.71-1.24-.03-2.47,0-3.71,0-.34,0-.35.02-.35.36,0,2.21,0,4.43,0,6.65Z"/>
          <path class="cls-7" d="M191.89,15.2c0-1.68,0-3.36,0-5.05,0-1.03-.04-2.07-.06-3.1,0-.41.12-.53.57-.52,1.9.02,3.8.04,5.7.05.96,0,1.92-.03,2.88-.04.41,0,.54.08.61.49.04.24.07.48.07.72,0,.23-.13.39-.36.4-.3.02-.6,0-.89,0-1.91-.02-3.81-.04-5.72-.06-.23,0-.32.1-.32.32,0,1.88-.02,3.77-.03,5.65,0,.21.13.21.27.21,1.64,0,3.28,0,4.92,0,.28,0,.56-.04.85-.05.3,0,.45.13.42.43-.03.29-.1.59-.19.87-.07.26-.27.37-.54.36-.59-.03-1.18-.08-1.77-.08-1.21,0-2.43.02-3.64.03-.31,0-.33.02-.33.33.02,1.77.04,3.54.06,5.31,0,.33.1.5.42.56.61.13,1.24.22,1.86.29,1.57.16,3.13.07,4.7-.04.12,0,.25-.02.36,0,.34.04.51.28.47.61-.03.18-.06.37-.1.55-.08.39-.19.47-.58.46-.52-.01-1.05-.05-1.57-.04-2.4,0-4.79.03-7.18.04-.16,0-.32,0-.49,0-.35-.01-.45-.1-.45-.45,0-.44.02-.89.02-1.33.03-2.3.06-4.59.09-6.89h-.05Z"/>
        </g>
        <path class="cls-7" d="M243.15,5.12c0,1.04.84,1.87,1.88,1.87,1.04,0,1.87-.84,1.87-1.87,0-1.04-.84-1.88-1.87-1.88-1.04,0-1.88.84-1.88,1.88ZM242.72,5.12c0-1.28,1.03-2.31,2.31-2.31,1.27,0,2.31,1.03,2.31,2.31,0,1.27-1.03,2.31-2.31,2.31-1.27,0-2.31-1.03-2.31-2.31ZM244.51,4.94h.6c.13,0,.23-.01.3-.04.07-.03.13-.07.17-.12.04-.06.06-.12.06-.19,0-.1-.04-.18-.11-.25-.07-.07-.19-.1-.34-.1h-.67s0,.7,0,.7ZM244.22,6.12v-2.13h.94c.19,0,.33.02.43.06.1.04.18.1.24.2.06.1.09.2.09.32,0,.15-.05.28-.15.38-.09.1-.25.17-.45.2.07.04.13.07.17.11.08.07.16.17.23.28l.37.58h-.35l-.28-.44c-.08-.13-.15-.22-.2-.29-.05-.07-.1-.11-.14-.14-.04-.03-.09-.05-.13-.06-.03,0-.08,0-.16,0h-.32s0,.94,0,.94h-.28Z"/>
      </g>
      <rect class="cls-5" x="254.84" y="3.15" width="17.45" height="21.76" rx="8.32" ry="8.32"/>
      <path class="cls-4" d="M263.34,3.15s-1.25,4.76-8.28,6.91"/>
      <path class="cls-4" d="M263.78,3.15s1.25,4.76,8.28,6.91"/>
      <rect class="cls-5" x="258.62" y="9.18" width="9.64" height="3.81"/>
      <rect class="cls-5" x="258.62" y="12.99" width="9.64" height="3.06"/>
      <path class="cls-5" d="M258.62,16.04v6.44s3.98-.72,4.82-1.72"/>
      <path class="cls-5" d="M262.73,16.04s1.23,5.08,7.42,5.7"/>
      <line class="cls-5" x1="265.87" y1="20.27" x2="269.94" y2="16.47"/>
      <g>
        <path class="cls-2" d="M163.89,44.04s.01,0,.01,0c.01,0-.01-.06-.14-.2-.09-.1-.15-.15-.16-.14,0,0,0,0,0,0,0,.02.05.08.15.2.04.04.07.07.09.09.02.02.04.03.05.04Z"/>
        <path class="cls-2" d="M148.69,86.32c-.13,0-.24.02-.43.05-.42.06-.85.12-1.31.14-.19.01-.38.01-.56.02-.18,0-.37.01-.57.02-.31.02-.57.02-.56-.02,0-.03-.12-.04-.43-.02-.19,0-.37.02-.57.02-.1,0-.2,0-.31,0-.11,0-.22-.02-.34-.03-.04,0-.16-.01-.21-.01-.26,0-.53-.01-.79-.03-.13,0-.27-.02-.4-.04-.13-.02-.27-.04-.41-.05-.11-.02-.22-.02-.3-.02-.06,0-.09,0,0,.02.37.05.71.13,1.08.15.31.01.62.03.93.04.16,0,.31.02.47.02.16,0,.31,0,.47,0,.46,0,.72,0,.9.04.11.02.27.02.58,0,.23-.02.48-.03.73-.04.25-.01.51-.04.77-.06.38-.02.7-.06,1.05-.12.13-.02.33-.04.36-.06.01,0-.06,0-.12,0Z"/>
        <path class="cls-2" d="M115.81,53.54s.01.04.03.07c0-.02-.02-.05-.03-.07,0,0,0,0,0,0Z"/>
        <g class="cls-8">
          <g>
            <path class="cls-9" d="M172.3,59.98c-.02,16.21-13.17,29.33-29.38,29.3-16.2-.02-29.34-13.18-29.31-29.39.02-16.21,13.2-29.33,29.4-29.3,16.21.02,29.32,13.18,29.3,29.39Z"/>
            <path class="cls-1" d="M143,30.59c-13.65-.02-25.13,9.27-28.43,21.87v.05c0,8.41,6.82,15.23,15.23,15.25,5.88,0,10.97-3.31,13.53-8.18l.02-.04c.05-.13.11-.25.18-.38,2.54-4.87,7.65-8.2,13.53-8.19,7.56.01,13.81,5.54,14.99,12.77.16-1.23.24-2.48.24-3.76.02-16.21-13.09-29.37-29.3-29.39Z"/>
          </g>
        </g>
        <path class="cls-2" d="M115.93,53.53s0,0,0,0c0,0-.01,0,0,0Z"/>
        <path class="cls-2" d="M116.08,52.26c.04-.15.08-.31.11-.46.04-.16.08-.31.13-.47.09-.31.19-.62.28-.93.02-.08.05-.15.07-.23.03-.07.05-.15.08-.22.05-.15.1-.29.15-.43.1-.28.18-.55.27-.8.1-.21.15-.35.21-.51.06-.15.13-.33.1-.3-.03.03-.13.21-.2.37-.07.16-.15.32-.23.47-.07.15-.13.31-.19.45-.18.47-.37.93-.53,1.39-.08.23-.16.46-.24.7-.04.12-.08.24-.11.36-.03.12-.07.24-.1.37-.08.28-.16.58-.24.87-.04.15.07.41.17.65.05-.24.09-.45.13-.66.05-.21.09-.4.14-.62Z"/>
        <path class="cls-2" d="M141.08,32.62c-.06,0-.13.02-.19.03-.12.02-.22.04-.28.06-.15.05-.06.07.18.05.12-.01.22-.02.31-.02.08,0,.15,0,.2,0,.1,0,.15.02.18.04.04.02.28.02.58-.01.24-.03.28-.05.18-.07-.15-.02-.19-.04-.08-.06.05-.01.14-.03.27-.04.13-.02.3-.02.51-.04.33-.02.45-.04.37-.06-.08-.02-.23-.03-.55,0-.24.02-.46.04-.6.02-.02,0-.11,0-.21,0-.12.04-.38.06-.65.09-.07,0-.13.01-.2.02Z"/>
        <path class="cls-2" d="M122.18,40.9s.05-.04.06-.04c.02-.01,0,.04.12-.09.12-.13.13-.15.17-.21.08-.1.14-.19.24-.31.22-.26.22-.3.25-.38-.02-.02-.08,0-.29.22-.21.21-.49.48-.59.64-.16.24-.47.66.03.17Z"/>
        <path class="cls-2" d="M148.36,32.18s.06-.05.16-.07c-.06-.02-.1-.05-.18-.08-.12-.04-.34-.09-.73-.12-.36-.03-.51-.02-.55,0-.08.06.63.16,1.07.24.15.03.25.03.24.02Z"/>
        <path class="cls-2" d="M145.24,31.65c-.16.02.02.03.21.06.25.03.41.02.6.02.76.02.79-.06.06-.14-.16-.02-.32-.03-.48-.04-.16,0-.31-.01-.45,0-.23,0-.09.03-.05.05.04.02.19.04.1.06Z"/>
        <path class="cls-2" d="M165.02,45.18c-.19-.25-.52-.56-.55-.54,0,.04,0,.08.01.13,0,.03.07.11.13.16.24.24.57.65.71.75.05.03.08.04.01-.06-.07-.12-.19-.28-.32-.44Z"/>
        <path class="cls-2" d="M138.96,32.55c.14-.02.28-.05.22-.05-.29.01-.02-.07.01-.11.04-.06-.5.04-.8.09-.29.04-.2.06-.28.1-.05.02-.05.03-.06.04,0,.04.51,0,.9-.06Z"/>
        <path class="cls-2" d="M160.7,40.41s-.12-.1-.21-.15c-.57-.39-.79-.47-.5-.18.11.04.26.13.49.29.12.08.23.14.31.2.18.11-.1-.14-.09-.16Z"/>
        <path class="cls-2" d="M124.98,38.57c.22-.19.72-.66.72-.68-.12.07-.09,0-.35.2-.19.15-.79.74-.74.74.04,0,.12-.05.37-.26Z"/>
        <path class="cls-2" d="M123.39,40.32c.23-.23.26-.3.25-.32-.02-.05-.16.07-.61.52-.15.16-.41.4-.42.48-.02.03.61-.5.78-.68Z"/>
        <path class="cls-2" d="M152.13,33.01c.34.08.61.09.43.01-.13-.05-.34-.12-.55-.18-.25-.06-.28-.05-.34-.04-.04,0-.08,0-.11,0-.02.04.26.13.58.2Z"/>
        <path class="cls-2" d="M164.39,45.15s0-.07-.17-.28c-.15-.18-.29-.33-.42-.45-.15-.16-.04,0,.01.09.04.06.07.12.11.18.04.07.09.15.19.26.1.11.24.25.23.2,0-.03,0-.03.04,0Z"/>
        <path class="cls-2" d="M150.61,32.89c.11.02.22.05.34.08.11.02.22.05.33.08.28.08.32.07.31.05,0-.02-.45-.19-.63-.22-.3-.06-.95-.16-.87-.13.11.04.31.09.53.14Z"/>
        <path class="cls-2" d="M165.91,46.96c-.14-.2-.53-.69-.54-.66,0,.03.05.13.16.29.1.14.21.29.3.4.09.11.15.18.17.17,0-.03.07.04-.09-.2Z"/>
        <path class="cls-2" d="M124.95,39.2s.43-.32.65-.47c.42-.37.1-.16.23-.3.05-.06-.13.08-.17.11-.17.18-.76.63-.71.66Z"/>
        <path class="cls-2" d="M146.17,32.28s.12.06.48.08c.34.03.38.01.38,0,0-.01-.03-.03-.11-.05-.04,0-.09-.02-.15-.03-.06,0-.13-.01-.21-.02-.31-.02-.35.01-.4.03Z"/>
        <path class="cls-2" d="M143.35,32.17c.17.02.28.04.67.05.07,0,.13,0,.18,0,0,0,.01,0,.02,0,.08,0,.12-.01.12-.03,0-.01-.19-.04-.39-.05-.07,0-.14,0-.21,0-.06,0-.12,0-.17,0-.19,0-.27.03-.22.03Z"/>
        <path class="cls-2" d="M161.29,41.46s-.01.02-.07,0c-.07-.04,0,.04.14.15.21.18.3.24.31.21-.03-.04.02-.03-.17-.2-.14-.13-.19-.14-.21-.14Z"/>
        <path class="cls-2" d="M162.01,41.93c.03.05.04.09.23.26.12.1.16.13.17.12-.01-.05-.14-.17-.29-.31-.09-.08-.13-.1-.11-.07Z"/>
        <path class="cls-2" d="M125.49,38.53c-.16.14-.34.3-.34.33,0,.02.14-.09.23-.17.15-.13.29-.26.32-.3-.02,0-.09.04-.2.14Z"/>
        <path class="cls-2" d="M154.05,33.88c.22.08.33.1.37.1,0-.02-.08-.05-.23-.1-.21-.07-.27-.08-.29-.07-.02,0,.02.03.16.08Z"/>
        <path class="cls-2" d="M126.44,37.13c.07-.05.16-.1.25-.16.12-.08.22-.16.18-.15-.07.03-.34.21-.46.29-.08.06-.17.13-.14.12.04-.02.09-.05.17-.09Z"/>
        <path class="cls-2" d="M149.12,32.34c.15.03.24.03.26.02.03-.01-.03-.03-.2-.07-.17-.03-.22-.02-.24-.02-.02.01-.03.02.17.06Z"/>
        <path class="cls-2" d="M155.05,33.68s.03.04.22.11c.14.05.27.1.25.08,0-.01-.05-.04-.11-.06-.06-.03-.14-.06-.22-.09-.19-.07-.14-.03-.15-.03Z"/>
        <path class="cls-2" d="M122.78,40.41s.02.01.15-.12c.14-.15.18-.2.16-.21,0,0,0-.02-.11.09-.12.13-.21.23-.2.24Z"/>
        <path class="cls-2" d="M128.6,35.88c.16-.1.2-.14.2-.15-.02,0-.05,0-.19.09-.17.11-.18.13-.18.14,0,.01.01.02.18-.08Z"/>
      </g>
    </g>
  </g>
</svg>