<?xml version="1.0" encoding="UTF-8"?>
<svg id="Layer_2" data-name="Layer 2" xmlns="http://www.w3.org/2000/svg" viewBox="0 0 60.86 82.39">
  <defs>
    <style>
      .cls-1 {
        fill: #ffffff;
      }
    </style>
  </defs>
  <g id="Layer_1-2" data-name="Layer 1">
    <g>
      <path class="cls-1" d="M35.4,26.48V0H10.73C4.8,0,0,4.8,0,10.73v70.43c0,.89,1.03,1.36,1.7.79l6.66-5.71c.95-.82,2.36-.82,3.31,0l6.1,5.22c1.41,1.22,3.49,1.22,4.91,0l6.09-5.22c.95-.82,2.36-.82,3.32,0l5.97,5.13c1.42,1.21,3.5,1.21,4.91,0l5.98-5.13c.96-.82,2.37-.82,3.32,0l6.88,5.9c.67.58,1.71.1,1.71-.78V26.48h-25.46ZM11.38,22.21h15.39v4.7h-15.39v-4.7ZM49.47,54.38H11.38v-4.69h38.08v4.69ZM49.47,40.64H11.38v-4.7h38.08v4.7Z"/>
      <polygon class="cls-1" points="39.44 1.76 39.44 22.44 60.11 22.44 39.44 1.76"/>
    </g>
  </g>
</svg>