<?xml version="1.0" encoding="UTF-8"?>
<svg id="Layer_2" data-name="Layer 2" xmlns="http://www.w3.org/2000/svg" viewBox="0 0 69.05 88.76">
  <defs>
    <style>
      .cls-1 {
        fill: #fff;
      }

      .cls-2 {
        fill: none;
        stroke: #c70012;
        stroke-miterlimit: 10;
        stroke-width: 2.84px;
      }

      .cls-3 {
        fill: #c70012;
      }
    </style>
  </defs>
  <g id="Layer_1-2" data-name="Layer 1">
    <g>
      <g>
        <path class="cls-3" d="M35.4,32.84V6.37H10.73C4.8,6.37,0,11.17,0,17.1v70.43c0,.89,1.03,1.36,1.7.79l6.66-5.71c.95-.82,2.36-.82,3.31,0l6.1,5.22c1.41,1.22,3.49,1.22,4.91,0l6.09-5.22c.95-.82,2.36-.82,3.32,0l5.97,5.13c1.42,1.21,3.5,1.21,4.91,0l5.98-5.13c.96-.82,2.37-.82,3.32,0l6.88,5.9c.67.58,1.71.1,1.71-.78v-54.88h-25.46ZM11.38,28.58h15.39v4.7h-15.39v-4.7ZM49.47,60.75H11.38v-4.69h38.08v4.69ZM49.47,47.01H11.38v-4.7h38.08v4.7Z"/>
        <polygon class="cls-3" points="39.44 8.13 39.44 28.81 60.11 28.81 39.44 8.13"/>
      </g>
      <g>
        <path class="cls-1" d="M67.63,19.59c0,10.03-8.13,18.16-18.16,18.16s-18.16-8.13-18.16-18.16S39.44,1.42,49.47,1.42s18.16,8.13,18.16,18.16"/>
        <circle class="cls-2" cx="49.47" cy="19.59" r="18.16" transform="translate(12.44 57.79) rotate(-67.5)"/>
        <path class="cls-3" d="M57.59,16.96l-7.3-7.33c-.46-.46-1.2-.46-1.65,0l-7.3,7.33c-.73.74-.21,1.99.83,1.99h2.9v9.77c0,.64.52,1.17,1.17,1.17h6.46c.64,0,1.17-.52,1.17-1.17v-9.77h2.9c1.04,0,1.56-1.25.83-1.99"/>
      </g>
    </g>
  </g>
</svg>